<svg width="120" height="120" viewBox="0 0 120 120" fill="none" xmlns="http://www.w3.org/2000/svg">
<g clip-path="url(#clip0_23_29)">
<g filter="url(#filter0_d_23_29)">
<path d="M113.059 36.3759C113.053 35.3089 113.041 34.2429 113.012 33.1749C112.95 30.8519 112.813 28.5079 112.4 26.2089C111.981 23.8749 111.296 21.7049 110.217 19.5839C109.157 17.5019 107.772 15.5959 106.12 13.9439C104.468 12.2919 102.563 10.9069 100.48 9.84695C98.362 8.76895 96.191 8.08395 93.859 7.66495C91.559 7.25095 89.215 7.11395 86.89 7.05195C85.823 7.02295 84.756 7.01095 83.689 7.00395C82.423 6.99695 81.155 6.99695 79.889 6.99695H51.81H40.179C38.912 6.99695 37.645 6.99695 36.379 7.00395C35.312 7.01095 34.244 7.02295 33.178 7.05195C32.597 7.06795 32.015 7.08795 31.432 7.11595C29.684 7.19995 27.933 7.35495 26.21 7.66495C24.461 7.97895 22.803 8.44295 21.189 9.10995C20.651 9.33195 20.118 9.57695 19.589 9.84695C18.027 10.6419 16.564 11.6199 15.234 12.7559C14.789 13.1359 14.361 13.5319 13.948 13.9449C12.295 15.5969 10.91 17.5029 9.85101 19.5849C8.77201 21.7049 8.08801 23.8759 7.66801 26.2099C7.25501 28.5079 7.11801 30.8529 7.05601 33.1759C7.02701 34.2439 7.01401 35.3099 7.00701 36.3769C6.99901 37.643 7.00001 38.9099 7.00001 40.1759V57.4669V79.8849C7.00001 81.1529 6.99901 82.4189 7.00701 83.6869C7.01401 84.7539 7.02601 85.8199 7.05601 86.8859C7.11801 89.2099 7.25601 91.5549 7.66801 93.8519C8.08701 96.1849 8.77101 98.3569 9.85101 100.477C10.911 102.56 12.296 104.465 13.948 106.116C15.599 107.769 17.505 109.154 19.589 110.215C21.708 111.293 23.878 111.977 26.21 112.396C28.508 112.81 30.854 112.947 33.178 113.009C34.244 113.037 35.312 113.05 36.379 113.056C37.645 113.065 38.911 113.064 40.179 113.064H79.888C81.154 113.064 82.422 113.065 83.688 113.056C84.755 113.05 85.821 113.037 86.889 113.009C89.214 112.947 91.558 112.809 93.858 112.396C96.19 111.977 98.36 111.293 100.479 110.215C102.562 109.154 104.467 107.769 106.119 106.116C107.771 104.464 109.157 102.56 110.216 100.477C111.295 98.3569 111.98 96.1849 112.399 93.8519C112.812 91.5549 112.949 89.2099 113.011 86.8859C113.04 85.8199 113.052 84.7539 113.058 83.6869C113.066 82.4189 113.066 81.1529 113.066 79.8849V40.1759C113.066 38.9099 113.067 37.6429 113.059 36.3759Z" fill="white"/>
</g>
<mask id="mask0_23_29" style="mask-type:alpha" maskUnits="userSpaceOnUse" x="7" y="6" width="107" height="108">
<path d="M113.059 36.3759C113.053 35.3089 113.041 34.2429 113.012 33.1749C112.95 30.8519 112.813 28.5079 112.4 26.2089C111.981 23.8749 111.296 21.7049 110.217 19.5839C109.157 17.5019 107.772 15.5959 106.12 13.9439C104.468 12.2919 102.563 10.9069 100.48 9.84695C98.362 8.76895 96.191 8.08395 93.859 7.66495C91.559 7.25095 89.215 7.11395 86.89 7.05195C85.823 7.02295 84.756 7.01095 83.689 7.00395C82.423 6.99695 81.155 6.99695 79.889 6.99695H51.81H40.179C38.912 6.99695 37.645 6.99695 36.379 7.00395C35.312 7.01095 34.244 7.02295 33.178 7.05195C32.597 7.06795 32.015 7.08795 31.432 7.11595C29.684 7.19995 27.933 7.35495 26.21 7.66495C24.461 7.97895 22.803 8.44295 21.189 9.10995C20.651 9.33195 20.118 9.57695 19.589 9.84695C18.027 10.6419 16.564 11.6199 15.234 12.7559C14.789 13.1359 14.361 13.5319 13.948 13.9449C12.295 15.5969 10.91 17.5029 9.85101 19.5849C8.77201 21.7049 8.08801 23.8759 7.66801 26.2099C7.25501 28.5079 7.11801 30.8529 7.05601 33.1759C7.02701 34.2439 7.01401 35.3099 7.00701 36.3769C6.99901 37.643 7.00001 38.9099 7.00001 40.1759V57.4669V79.8849C7.00001 81.1529 6.99901 82.4189 7.00701 83.6869C7.01401 84.7539 7.02601 85.8199 7.05601 86.8859C7.11801 89.2099 7.25601 91.5549 7.66801 93.8519C8.08701 96.1849 8.77101 98.3569 9.85101 100.477C10.911 102.56 12.296 104.465 13.948 106.116C15.599 107.769 17.505 109.154 19.589 110.215C21.708 111.293 23.878 111.977 26.21 112.396C28.508 112.81 30.854 112.947 33.178 113.009C34.244 113.037 35.312 113.05 36.379 113.056C37.645 113.065 38.911 113.064 40.179 113.064H79.888C81.154 113.064 82.422 113.065 83.688 113.056C84.755 113.05 85.821 113.037 86.889 113.009C89.214 112.947 91.558 112.809 93.858 112.396C96.19 111.977 98.36 111.293 100.479 110.215C102.562 109.154 104.467 107.769 106.119 106.116C107.771 104.464 109.157 102.56 110.216 100.477C111.295 98.3569 111.98 96.1849 112.399 93.8519C112.812 91.5549 112.949 89.2099 113.011 86.8859C113.04 85.8199 113.052 84.7539 113.058 83.6869C113.066 82.4189 113.066 81.1529 113.066 79.8849V40.1759C113.066 38.9099 113.067 37.6429 113.059 36.3759Z" fill="white"/>
</mask>
<g mask="url(#mask0_23_29)">
</g>
<g filter="url(#filter1_d_23_29)">
<path d="M59.5586 79.472C58.6933 79.472 58.0116 79.0787 57.1726 77.925C53.1609 72.7597 51.2469 66.7029 51.2469 60.0954C51.2469 53.488 53.2133 47.2477 57.1726 42.2397C58.0116 41.086 58.6933 40.6927 59.5586 40.6927C60.45 40.6927 61.0793 41.2433 61.0793 42.0824C61.0793 42.4757 61.0007 42.6854 60.7122 43.236C57.4085 48.2178 55.678 54.1697 55.678 60.1217C55.678 66.2833 57.5134 71.9731 60.7122 76.9286C61.0007 77.4792 61.0793 77.689 61.0793 78.0823C61.0793 78.9738 60.45 79.472 59.5586 79.472ZM86.3553 79.472C85.4638 79.472 84.8346 78.9213 84.8346 78.0823C84.8346 77.689 84.9132 77.4792 85.2016 76.9286C88.4005 71.9731 90.2359 66.2833 90.2359 60.1217C90.2359 54.1697 88.5053 48.2178 85.2016 43.236C84.9132 42.6854 84.8346 42.4757 84.8346 42.0824C84.8346 41.2433 85.4638 40.6927 86.3553 40.6927C87.2206 40.6927 87.9023 41.086 88.7413 42.2397C92.7005 47.2477 94.667 53.488 94.667 60.0954C94.667 66.7029 92.753 72.7597 88.7413 77.925C87.9023 79.0787 87.2206 79.472 86.3553 79.472ZM28.2258 79.4195C25.8922 79.4195 24.6861 78.764 24.6861 77.3481C24.6861 76.2469 25.3416 75.5914 26.5477 75.4341C26.7837 75.4079 27.1507 75.3817 27.5178 75.3817C30.3234 75.3817 31.3984 74.1231 32.1325 70.6883L35.0167 56.9753H32.0539C30.8215 56.9753 30.0874 56.2673 30.0874 55.1399C30.0874 53.8289 31.0575 53.0161 32.6045 53.0161H35.8558L36.721 48.8209C37.9009 43.2098 40.4705 40.7189 45.4785 40.7189C47.9956 40.7189 49.2279 41.3744 49.2279 42.8427C49.2279 43.9702 48.6249 44.5733 47.3401 44.7044C47.0517 44.7306 46.6321 44.7568 46.1864 44.7568C43.3022 44.7568 42.2534 46.1202 41.5455 49.4502L40.8113 53.0161H45.2687C46.4748 53.0161 47.209 53.724 47.209 54.8515C47.209 56.1625 46.2388 56.9753 44.7181 56.9753H39.9723L36.9832 71.3176C35.7247 77.217 33.3649 79.4195 28.2258 79.4195ZM65.0647 72.5237C64.0159 72.5237 63.1507 71.7371 63.1507 70.7145C63.1507 70.1901 63.2294 69.7444 63.5964 69.2462L70.3874 59.8857L63.9897 51.338C63.6489 50.8923 63.4129 50.4203 63.4129 49.6599C63.4129 48.6111 64.3306 47.641 65.5629 47.641C66.5593 47.641 67.1623 48.0867 67.6867 48.8471L73.2454 56.9753H73.3765L78.9089 48.8733C79.407 48.1129 79.9314 47.641 80.8754 47.641C81.9504 47.641 82.8943 48.4276 82.8943 49.555C82.8943 50.1057 82.7107 50.5776 82.3961 51.0234L75.6838 60.0168L82.3961 69.1413C82.737 69.5871 82.8681 70.059 82.8681 70.5572C82.8681 71.6322 82.0552 72.5237 80.7967 72.5237C80.1674 72.5237 79.5381 72.3401 78.8826 71.4224L73.0094 63.1107H72.9045L67.1623 71.2913C66.5068 72.2353 65.9038 72.5237 65.0647 72.5237Z" fill="url(#paint0_linear_23_29)"/>
</g>
</g>
<defs>
<filter id="filter0_d_23_29" x="-3.00003" y="-3.00305" width="126.066" height="126.067" filterUnits="userSpaceOnUse" color-interpolation-filters="sRGB">
<feFlood flood-opacity="0" result="BackgroundImageFix"/>
<feColorMatrix in="SourceAlpha" type="matrix" values="0 0 0 0 0 0 0 0 0 0 0 0 0 0 0 0 0 0 127 0" result="hardAlpha"/>
<feOffset/>
<feGaussianBlur stdDeviation="5"/>
<feComposite in2="hardAlpha" operator="out"/>
<feColorMatrix type="matrix" values="0 0 0 0 0.682353 0 0 0 0 0.00392157 0 0 0 0 0.776471 0 0 0 0.1 0"/>
<feBlend mode="normal" in2="BackgroundImageFix" result="effect1_dropShadow_23_29"/>
<feBlend mode="normal" in="SourceGraphic" in2="effect1_dropShadow_23_29" result="shape"/>
</filter>
<filter id="filter1_d_23_29" x="21.1062" y="40.6927" width="77.1407" height="45.939" filterUnits="userSpaceOnUse" color-interpolation-filters="sRGB">
<feFlood flood-opacity="0" result="BackgroundImageFix"/>
<feColorMatrix in="SourceAlpha" type="matrix" values="0 0 0 0 0 0 0 0 0 0 0 0 0 0 0 0 0 0 127 0" result="hardAlpha"/>
<feOffset dy="3.57989"/>
<feGaussianBlur stdDeviation="1.78995"/>
<feComposite in2="hardAlpha" operator="out"/>
<feColorMatrix type="matrix" values="0 0 0 0 0.819608 0 0 0 0 0.00392157 0 0 0 0 0.905882 0 0 0 0.1 0"/>
<feBlend mode="normal" in2="BackgroundImageFix" result="effect1_dropShadow_23_29"/>
<feBlend mode="normal" in="SourceGraphic" in2="effect1_dropShadow_23_29" result="shape"/>
</filter>
<linearGradient id="paint0_linear_23_29" x1="92.2106" y1="28" x2="27.7894" y2="92" gradientUnits="userSpaceOnUse">
<stop stop-color="#EB00FF"/>
<stop offset="1" stop-color="#8D0099"/>
</linearGradient>
<clipPath id="clip0_23_29">
<rect width="120" height="120" fill="white"/>
</clipPath>
</defs>
</svg>
