<svg width="120" height="120" viewBox="0 0 120 120" fill="none" xmlns="http://www.w3.org/2000/svg">
<g clip-path="url(#clip0_23_11)">
<g filter="url(#filter0_d_23_11)">
<path d="M113.059 36.3759C113.053 35.3089 113.041 34.2429 113.012 33.1749C112.95 30.8519 112.813 28.5079 112.4 26.2089C111.981 23.8749 111.296 21.7049 110.217 19.5839C109.157 17.5019 107.772 15.5959 106.12 13.9439C104.468 12.2919 102.563 10.9069 100.48 9.84695C98.362 8.76895 96.191 8.08395 93.859 7.66495C91.559 7.25095 89.215 7.11395 86.89 7.05195C85.823 7.02295 84.756 7.01095 83.689 7.00395C82.423 6.99695 81.155 6.99695 79.889 6.99695H51.81H40.179C38.912 6.99695 37.645 6.99695 36.379 7.00395C35.312 7.01095 34.244 7.02295 33.178 7.05195C32.597 7.06795 32.015 7.08795 31.432 7.11595C29.684 7.19995 27.933 7.35495 26.21 7.66495C24.461 7.97895 22.803 8.44295 21.189 9.10995C20.651 9.33195 20.118 9.57695 19.589 9.84695C18.027 10.6419 16.564 11.6199 15.234 12.7559C14.789 13.1359 14.361 13.5319 13.948 13.9449C12.295 15.5969 10.91 17.5029 9.85101 19.5849C8.77201 21.7049 8.08801 23.8759 7.66801 26.2099C7.25501 28.5079 7.11801 30.8529 7.05601 33.1759C7.02701 34.2439 7.01401 35.3099 7.00701 36.3769C6.99901 37.6429 7.00001 38.9099 7.00001 40.1759V57.4669V79.8849C7.00001 81.1529 6.99901 82.4189 7.00701 83.6869C7.01401 84.7539 7.02601 85.8199 7.05601 86.8859C7.11801 89.2099 7.25601 91.5549 7.66801 93.8519C8.08701 96.1849 8.77101 98.3569 9.85101 100.477C10.911 102.56 12.296 104.465 13.948 106.116C15.599 107.769 17.505 109.154 19.589 110.215C21.708 111.293 23.878 111.977 26.21 112.396C28.508 112.81 30.854 112.947 33.178 113.009C34.244 113.037 35.312 113.05 36.379 113.056C37.645 113.065 38.911 113.064 40.179 113.064H79.888C81.154 113.064 82.422 113.065 83.688 113.056C84.755 113.05 85.821 113.037 86.889 113.009C89.214 112.947 91.558 112.809 93.858 112.396C96.19 111.977 98.36 111.293 100.479 110.215C102.562 109.154 104.467 107.769 106.119 106.116C107.771 104.464 109.157 102.56 110.216 100.477C111.295 98.3569 111.98 96.1849 112.399 93.8519C112.812 91.5549 112.949 89.2099 113.011 86.8859C113.04 85.8199 113.052 84.7539 113.058 83.6869C113.066 82.4189 113.066 81.1529 113.066 79.8849V40.1759C113.066 38.9099 113.067 37.6429 113.059 36.3759Z" fill="white"/>
</g>
<mask id="mask0_23_11" style="mask-type:alpha" maskUnits="userSpaceOnUse" x="7" y="6" width="107" height="108">
<path d="M113.059 36.3759C113.053 35.3089 113.041 34.2429 113.012 33.1749C112.95 30.8519 112.813 28.5079 112.4 26.2089C111.981 23.8749 111.296 21.7049 110.217 19.5839C109.157 17.5019 107.772 15.5959 106.12 13.9439C104.468 12.2919 102.563 10.9069 100.48 9.84695C98.362 8.76895 96.191 8.08395 93.859 7.66495C91.559 7.25095 89.215 7.11395 86.89 7.05195C85.823 7.02295 84.756 7.01095 83.689 7.00395C82.423 6.99695 81.155 6.99695 79.889 6.99695H51.81H40.179C38.912 6.99695 37.645 6.99695 36.379 7.00395C35.312 7.01095 34.244 7.02295 33.178 7.05195C32.597 7.06795 32.015 7.08795 31.432 7.11595C29.684 7.19995 27.933 7.35495 26.21 7.66495C24.461 7.97895 22.803 8.44295 21.189 9.10995C20.651 9.33195 20.118 9.57695 19.589 9.84695C18.027 10.6419 16.564 11.6199 15.234 12.7559C14.789 13.1359 14.361 13.5319 13.948 13.9449C12.295 15.5969 10.91 17.5029 9.85101 19.5849C8.77201 21.7049 8.08801 23.8759 7.66801 26.2099C7.25501 28.5079 7.11801 30.8529 7.05601 33.1759C7.02701 34.2439 7.01401 35.3099 7.00701 36.3769C6.99901 37.6429 7.00001 38.9099 7.00001 40.1759V57.4669V79.8849C7.00001 81.1529 6.99901 82.4189 7.00701 83.6869C7.01401 84.7539 7.02601 85.8199 7.05601 86.8859C7.11801 89.2099 7.25601 91.5549 7.66801 93.8519C8.08701 96.1849 8.77101 98.3569 9.85101 100.477C10.911 102.56 12.296 104.465 13.948 106.116C15.599 107.769 17.505 109.154 19.589 110.215C21.708 111.293 23.878 111.977 26.21 112.396C28.508 112.81 30.854 112.947 33.178 113.009C34.244 113.037 35.312 113.05 36.379 113.056C37.645 113.065 38.911 113.064 40.179 113.064H79.888C81.154 113.064 82.422 113.065 83.688 113.056C84.755 113.05 85.821 113.037 86.889 113.009C89.214 112.947 91.558 112.809 93.858 112.396C96.19 111.977 98.36 111.293 100.479 110.215C102.562 109.154 104.467 107.769 106.119 106.116C107.771 104.464 109.157 102.56 110.216 100.477C111.295 98.3569 111.98 96.1849 112.399 93.8519C112.812 91.5549 112.949 89.2099 113.011 86.8859C113.04 85.8199 113.052 84.7539 113.058 83.6869C113.066 82.4189 113.066 81.1529 113.066 79.8849V40.1759C113.066 38.9099 113.067 37.6429 113.059 36.3759Z" fill="white"/>
</mask>
<g mask="url(#mask0_23_11)">
</g>
<g filter="url(#filter1_d_23_11)">
<path d="M38.0664 57.4746C34.3457 57.4746 32.4707 55.5996 32.4707 51.7324V38.6367C32.4707 34.7695 34.3457 32.9238 38.0664 32.9238H51.4258C55.1465 32.9238 57.0215 34.7695 57.0215 38.6367V51.7324C57.0215 55.5996 55.1465 57.4746 51.4258 57.4746H38.0664ZM67.4805 57.4746C63.7305 57.4746 61.8555 55.5996 61.8555 51.7324V38.6367C61.8555 34.7695 63.7305 32.9238 67.4805 32.9238H80.8105C84.5312 32.9238 86.4062 34.7695 86.4062 38.6367V51.7324C86.4062 55.5996 84.5312 57.4746 80.8105 57.4746H67.4805ZM38.125 53.3438H51.3379C52.3633 53.3438 52.8906 52.8164 52.8906 51.7324V38.6367C52.8906 37.582 52.3633 37.0547 51.3379 37.0547H38.125C37.0996 37.0547 36.6016 37.582 36.6016 38.6367V51.7324C36.6016 52.8164 37.0996 53.3438 38.125 53.3438ZM67.5391 53.3438H80.752C81.7773 53.3438 82.2754 52.8164 82.2754 51.7324V38.6367C82.2754 37.582 81.7773 37.0547 80.752 37.0547H67.5391C66.4844 37.0547 65.9863 37.582 65.9863 38.6367V51.7324C65.9863 52.8164 66.4844 53.3438 67.5391 53.3438ZM38.0664 86.8594C34.3457 86.8594 32.4707 85.0137 32.4707 81.1465V68.0215C32.4707 64.1836 34.3457 62.3086 38.0664 62.3086H51.4258C55.1465 62.3086 57.0215 64.1836 57.0215 68.0215V81.1465C57.0215 85.0137 55.1465 86.8594 51.4258 86.8594H38.0664ZM67.4805 86.8594C63.7305 86.8594 61.8555 85.0137 61.8555 81.1465V68.0215C61.8555 64.1836 63.7305 62.3086 67.4805 62.3086H80.8105C84.5312 62.3086 86.4062 64.1836 86.4062 68.0215V81.1465C86.4062 85.0137 84.5312 86.8594 80.8105 86.8594H67.4805ZM38.125 82.7285H51.3379C52.3633 82.7285 52.8906 82.2012 52.8906 81.1465V68.0508C52.8906 66.9668 52.3633 66.4395 51.3379 66.4395H38.125C37.0996 66.4395 36.6016 66.9668 36.6016 68.0508V81.1465C36.6016 82.2012 37.0996 82.7285 38.125 82.7285ZM67.5391 82.7285H80.752C81.7773 82.7285 82.2754 82.2012 82.2754 81.1465V68.0508C82.2754 66.9668 81.7773 66.4395 80.752 66.4395H67.5391C66.4844 66.4395 65.9863 66.9668 65.9863 68.0508V81.1465C65.9863 82.2012 66.4844 82.7285 67.5391 82.7285Z" fill="#EB00FF"/>
</g>
</g>
<defs>
<filter id="filter0_d_23_11" x="-3.00003" y="-3.00305" width="126.066" height="126.067" filterUnits="userSpaceOnUse" color-interpolation-filters="sRGB">
<feFlood flood-opacity="0" result="BackgroundImageFix"/>
<feColorMatrix in="SourceAlpha" type="matrix" values="0 0 0 0 0 0 0 0 0 0 0 0 0 0 0 0 0 0 127 0" result="hardAlpha"/>
<feOffset/>
<feGaussianBlur stdDeviation="5"/>
<feComposite in2="hardAlpha" operator="out"/>
<feColorMatrix type="matrix" values="0 0 0 0 0.682353 0 0 0 0 0.00392157 0 0 0 0 0.776471 0 0 0 0.1 0"/>
<feBlend mode="normal" in2="BackgroundImageFix" result="effect1_dropShadow_23_11"/>
<feBlend mode="normal" in="SourceGraphic" in2="effect1_dropShadow_23_11" result="shape"/>
</filter>
<filter id="filter1_d_23_11" x="28.4707" y="32.9238" width="61.9355" height="61.9355" filterUnits="userSpaceOnUse" color-interpolation-filters="sRGB">
<feFlood flood-opacity="0" result="BackgroundImageFix"/>
<feColorMatrix in="SourceAlpha" type="matrix" values="0 0 0 0 0 0 0 0 0 0 0 0 0 0 0 0 0 0 127 0" result="hardAlpha"/>
<feOffset dy="4"/>
<feGaussianBlur stdDeviation="2"/>
<feComposite in2="hardAlpha" operator="out"/>
<feColorMatrix type="matrix" values="0 0 0 0 0.819608 0 0 0 0 0.00392157 0 0 0 0 0.905882 0 0 0 0.1 0"/>
<feBlend mode="normal" in2="BackgroundImageFix" result="effect1_dropShadow_23_11"/>
<feBlend mode="normal" in="SourceGraphic" in2="effect1_dropShadow_23_11" result="shape"/>
</filter>
<clipPath id="clip0_23_11">
<rect width="120" height="120" fill="white"/>
</clipPath>
</defs>
</svg>
