<svg width="120" height="120" viewBox="0 0 120 120" fill="none" xmlns="http://www.w3.org/2000/svg">
<g clip-path="url(#clip0_20_17)">
<g filter="url(#filter0_d_20_17)">
<path d="M113.059 36.3759C113.053 35.3089 113.041 34.2429 113.012 33.1749C112.95 30.8519 112.813 28.5079 112.4 26.2089C111.981 23.8749 111.296 21.7049 110.217 19.5839C109.157 17.5019 107.772 15.5959 106.12 13.9439C104.468 12.2919 102.563 10.9069 100.48 9.84695C98.362 8.76895 96.191 8.08395 93.859 7.66495C91.559 7.25095 89.215 7.11395 86.89 7.05195C85.823 7.02295 84.756 7.01095 83.689 7.00395C82.423 6.99695 81.155 6.99695 79.889 6.99695H51.81H40.179C38.912 6.99695 37.645 6.99695 36.379 7.00395C35.312 7.01095 34.244 7.02295 33.178 7.05195C32.597 7.06795 32.015 7.08795 31.432 7.11595C29.684 7.19995 27.933 7.35495 26.21 7.66495C24.461 7.97895 22.803 8.44295 21.189 9.10995C20.651 9.33195 20.118 9.57695 19.589 9.84695C18.027 10.6419 16.564 11.6199 15.234 12.7559C14.789 13.1359 14.361 13.5319 13.948 13.9449C12.295 15.5969 10.91 17.5029 9.85101 19.5849C8.77201 21.7049 8.08801 23.8759 7.66801 26.2099C7.25501 28.5079 7.11801 30.8529 7.05601 33.1759C7.02701 34.2439 7.01401 35.3099 7.00701 36.3769C6.99901 37.6429 7.00001 38.9099 7.00001 40.1759V57.4669V79.8849C7.00001 81.1529 6.99901 82.4189 7.00701 83.6869C7.01401 84.7539 7.02601 85.8199 7.05601 86.8859C7.11801 89.2099 7.25601 91.5549 7.66801 93.8519C8.08701 96.1849 8.77101 98.3569 9.85101 100.477C10.911 102.56 12.296 104.465 13.948 106.116C15.599 107.769 17.505 109.154 19.589 110.215C21.708 111.293 23.878 111.977 26.21 112.396C28.508 112.81 30.854 112.947 33.178 113.009C34.244 113.037 35.312 113.05 36.379 113.056C37.645 113.065 38.911 113.064 40.179 113.064H79.888C81.154 113.064 82.422 113.065 83.688 113.056C84.755 113.05 85.821 113.037 86.889 113.009C89.214 112.947 91.558 112.809 93.858 112.396C96.19 111.977 98.36 111.293 100.479 110.215C102.562 109.154 104.467 107.769 106.119 106.116C107.771 104.464 109.157 102.56 110.216 100.477C111.295 98.3569 111.98 96.1849 112.399 93.8519C112.812 91.5549 112.949 89.2099 113.011 86.8859C113.04 85.8199 113.052 84.7539 113.058 83.6869C113.066 82.4189 113.066 81.1529 113.066 79.8849V40.1759C113.066 38.9099 113.067 37.6429 113.059 36.3759Z" fill="white"/>
</g>
<mask id="mask0_20_17" style="mask-type:alpha" maskUnits="userSpaceOnUse" x="7" y="6" width="107" height="108">
<path d="M113.059 36.3759C113.053 35.3089 113.041 34.2429 113.012 33.1749C112.95 30.8519 112.813 28.5079 112.4 26.2089C111.981 23.8749 111.296 21.7049 110.217 19.5839C109.157 17.5019 107.772 15.5959 106.12 13.9439C104.468 12.2919 102.563 10.9069 100.48 9.84695C98.362 8.76895 96.191 8.08395 93.859 7.66495C91.559 7.25095 89.215 7.11395 86.89 7.05195C85.823 7.02295 84.756 7.01095 83.689 7.00395C82.423 6.99695 81.155 6.99695 79.889 6.99695H51.81H40.179C38.912 6.99695 37.645 6.99695 36.379 7.00395C35.312 7.01095 34.244 7.02295 33.178 7.05195C32.597 7.06795 32.015 7.08795 31.432 7.11595C29.684 7.19995 27.933 7.35495 26.21 7.66495C24.461 7.97895 22.803 8.44295 21.189 9.10995C20.651 9.33195 20.118 9.57695 19.589 9.84695C18.027 10.6419 16.564 11.6199 15.234 12.7559C14.789 13.1359 14.361 13.5319 13.948 13.9449C12.295 15.5969 10.91 17.5029 9.85101 19.5849C8.77201 21.7049 8.08801 23.8759 7.66801 26.2099C7.25501 28.5079 7.11801 30.8529 7.05601 33.1759C7.02701 34.2439 7.01401 35.3099 7.00701 36.3769C6.99901 37.6429 7.00001 38.9099 7.00001 40.1759V57.4669V79.8849C7.00001 81.1529 6.99901 82.4189 7.00701 83.6869C7.01401 84.7539 7.02601 85.8199 7.05601 86.8859C7.11801 89.2099 7.25601 91.5549 7.66801 93.8519C8.08701 96.1849 8.77101 98.3569 9.85101 100.477C10.911 102.56 12.296 104.465 13.948 106.116C15.599 107.769 17.505 109.154 19.589 110.215C21.708 111.293 23.878 111.977 26.21 112.396C28.508 112.81 30.854 112.947 33.178 113.009C34.244 113.037 35.312 113.05 36.379 113.056C37.645 113.065 38.911 113.064 40.179 113.064H79.888C81.154 113.064 82.422 113.065 83.688 113.056C84.755 113.05 85.821 113.037 86.889 113.009C89.214 112.947 91.558 112.809 93.858 112.396C96.19 111.977 98.36 111.293 100.479 110.215C102.562 109.154 104.467 107.769 106.119 106.116C107.771 104.464 109.157 102.56 110.216 100.477C111.295 98.3569 111.98 96.1849 112.399 93.8519C112.812 91.5549 112.949 89.2099 113.011 86.8859C113.04 85.8199 113.052 84.7539 113.058 83.6869C113.066 82.4189 113.066 81.1529 113.066 79.8849V40.1759C113.066 38.9099 113.067 37.6429 113.059 36.3759Z" fill="white"/>
</mask>
<g mask="url(#mask0_20_17)">
<path fill-rule="evenodd" clip-rule="evenodd" d="M78.0432 33.3684L1.91607 -43.552L-45.9615 3.83183L30.1656 80.7522L31.5913 79.3413L31.5611 79.8827L76.4914 82.3865L78.9951 37.4562L74.1837 37.1881L78.0432 33.3684Z" fill="url(#paint0_linear_20_17)"/>
<path d="M91.038 72.462C91.155 72.063 91.276 71.666 91.379 71.257C95.781 53.718 85.037 32.982 66.856 22.064C74.824 32.865 78.346 45.947 75.216 57.388C74.937 58.408 74.601 59.388 74.23 60.34C73.827 60.076 73.32 59.775 72.639 59.4C72.639 59.4 54.553 48.233 34.951 28.482C34.437 27.963 45.404 44.157 57.85 57.306C51.987 54.014 35.646 42.124 25.3 32.655C26.571 34.775 28.083 36.816 29.744 38.781C38.384 49.737 49.65 63.256 63.148 73.636C53.664 79.44 40.263 79.891 26.921 73.642C23.621 72.095 20.518 70.229 17.647 68.109C23.295 77.143 31.994 84.937 42.581 89.488C55.206 94.914 67.761 94.546 77.112 89.577L77.105 89.588C77.137 89.568 77.172 89.547 77.205 89.527C77.625 89.302 78.041 89.07 78.447 88.827C82.964 86.508 91.778 84.22 96.514 93.436C97.68 95.704 100.159 83.684 91.046 72.471C91.043 72.467 91.041 72.465 91.038 72.462Z" fill="url(#paint1_linear_20_17)"/>
</g>
</g>
<defs>
<filter id="filter0_d_20_17" x="-3.00003" y="-3.00305" width="126.066" height="126.067" filterUnits="userSpaceOnUse" color-interpolation-filters="sRGB">
<feFlood flood-opacity="0" result="BackgroundImageFix"/>
<feColorMatrix in="SourceAlpha" type="matrix" values="0 0 0 0 0 0 0 0 0 0 0 0 0 0 0 0 0 0 127 0" result="hardAlpha"/>
<feOffset/>
<feGaussianBlur stdDeviation="5"/>
<feComposite in2="hardAlpha" operator="out"/>
<feColorMatrix type="matrix" values="0 0 0 0 0.682353 0 0 0 0 0.00392157 0 0 0 0 0.776471 0 0 0 0.1 0"/>
<feBlend mode="normal" in2="BackgroundImageFix" result="effect1_dropShadow_20_17"/>
<feBlend mode="normal" in="SourceGraphic" in2="effect1_dropShadow_20_17" result="shape"/>
</filter>
<linearGradient id="paint0_linear_20_17" x1="57" y1="12.5" x2="10" y2="60.5" gradientUnits="userSpaceOnUse">
<stop stop-color="#D101E7" stop-opacity="0.1"/>
<stop offset="1" stop-color="#750181" stop-opacity="0.1"/>
</linearGradient>
<linearGradient id="paint1_linear_20_17" x1="98" y1="22" x2="18" y2="94" gradientUnits="userSpaceOnUse">
<stop stop-color="#EB00FF"/>
<stop offset="1" stop-color="#9B00B4"/>
</linearGradient>
<clipPath id="clip0_20_17">
<rect width="120" height="120" fill="white"/>
</clipPath>
</defs>
</svg>
